<?xml version="1.0" encoding="UTF-8" standalone="no"?>
<!-- Created with Inkscape (http://www.inkscape.org/) -->

<svg
   width="201mm"
   height="41mm"
   viewBox="0 0 201 41"
   version="1.1"
   id="svg1"
   inkscape:version="1.4.2 (ebf0e940, 2025-05-08)"
   sodipodi:docname="logo_1.svg"
   xmlns:inkscape="http://www.inkscape.org/namespaces/inkscape"
   xmlns:sodipodi="http://sodipodi.sourceforge.net/DTD/sodipodi-0.dtd"
   xmlns="http://www.w3.org/2000/svg"
   xmlns:svg="http://www.w3.org/2000/svg">
  <sodipodi:namedview
     id="namedview1"
     pagecolor="#ffffff"
     bordercolor="#000000"
     borderopacity="0.25"
     inkscape:showpageshadow="2"
     inkscape:pageopacity="0.0"
     inkscape:pagecheckerboard="0"
     inkscape:deskcolor="#d1d1d1"
     inkscape:document-units="mm"
     inkscape:zoom="0.89887065"
     inkscape:cx="567.37863"
     inkscape:cy="478.93432"
     inkscape:window-width="2800"
     inkscape:window-height="1186"
     inkscape:window-x="363"
     inkscape:window-y="179"
     inkscape:window-maximized="0"
     inkscape:current-layer="layer1" />
  <defs
     id="defs1">
    <rect
       x="238.07652"
       y="46.7253"
       width="442.77783"
       height="172.4386"
       id="rect18" />
    <linearGradient
       id="swatch10"
       inkscape:swatch="solid">
      <stop
         style="stop-color:#e1c757;stop-opacity:1;"
         offset="0"
         id="stop10" />
    </linearGradient>
  </defs>
  <g
     inkscape:label="Слой 1"
     inkscape:groupmode="layer"
     id="layer1">
    <path
       id="path3"
       style="fill:#57e1b5;fill-opacity:1;stroke-width:0.0875334"
       d="M 15.395826,3.9557574 A 11.052852,11.052852 0 0 0 3.2630273,13.811014 11.052852,11.052852 0 0 0 13.118288,25.943817 11.052852,11.052852 0 0 0 25.251086,16.088556 11.052852,11.052852 0 0 0 15.395826,3.9557574 Z M 15.16506,6.1836424 A 8.8130671,8.8130671 0 0 1 23.023201,15.857786 8.8130671,8.8130671 0 0 1 13.349054,23.715929 8.8130671,8.8130671 0 0 1 5.4909125,14.041784 8.8130671,8.8130671 0 0 1 15.16506,6.1836424 Z" />
    <path
       id="path4"
       style="fill:#5776e1;fill-opacity:1;stroke-width:0.0875334"
       d="M 22.75598,16.074873 A 11.052852,11.052852 0 0 0 10.623183,25.930128 11.052852,11.052852 0 0 0 20.478442,38.062931 11.052852,11.052852 0 0 0 32.611241,28.207669 11.052852,11.052852 0 0 0 22.75598,16.074873 Z m -0.230766,2.227881 a 8.8130671,8.8130671 0 0 1 7.858142,9.674146 8.8130671,8.8130671 0 0 1 -9.674149,7.858142 8.8130671,8.8130671 0 0 1 -7.858139,-9.674145 8.8130671,8.8130671 0 0 1 9.674146,-7.858143 z" />
    <path
       id="path5"
       style="fill:#e1c757;fill-opacity:1;stroke-width:0.0875334"
       d="M 29.484666,4.0444474 A 11.052852,11.052852 0 0 0 17.351868,13.899707 11.052852,11.052852 0 0 0 27.207127,26.03251 11.052852,11.052852 0 0 0 39.339929,16.177248 11.052852,11.052852 0 0 0 29.484666,4.0444474 Z m -0.230765,2.227886 a 8.8130671,8.8130671 0 0 1 7.858143,9.6741456 8.8130671,8.8130671 0 0 1 -9.674152,7.858143 8.8130671,8.8130671 0 0 1 -7.858139,-9.674153 8.8130671,8.8130671 0 0 1 9.674148,-7.8581356 z" />
    <path
       id="path6"
       style="fill:#e1c757;fill-opacity:0.7;stroke-width:0.0875334"
       d="M 29.484666,4.0444474 A 11.052852,11.052852 0 0 0 17.351868,13.899707 11.052852,11.052852 0 0 0 27.207127,26.03251 11.052852,11.052852 0 0 0 39.339929,16.177248 11.052852,11.052852 0 0 0 29.484666,4.0444474 Z m -0.230765,2.227886 a 8.8130671,8.8130671 0 0 1 7.858143,9.6741456 8.8130671,8.8130671 0 0 1 -9.674152,7.858143 8.8130671,8.8130671 0 0 1 -7.858139,-9.674153 8.8130671,8.8130671 0 0 1 9.674148,-7.8581356 z" />
    <path
       id="path7"
       style="fill:#5776e1;fill-opacity:0.7;stroke-width:0.0875334"
       d="M 22.75598,16.074873 A 11.052852,11.052852 0 0 0 10.623183,25.930128 11.052852,11.052852 0 0 0 20.478442,38.062931 11.052852,11.052852 0 0 0 32.611241,28.207669 11.052852,11.052852 0 0 0 22.75598,16.074873 Z m -0.230766,2.227881 a 8.8130671,8.8130671 0 0 1 7.858142,9.674146 8.8130671,8.8130671 0 0 1 -9.674149,7.858142 8.8130671,8.8130671 0 0 1 -7.858139,-9.674145 8.8130671,8.8130671 0 0 1 9.674146,-7.858143 z" />
    <path
       id="path9"
       style="fill:#57e1b5;fill-opacity:0.7;stroke-width:0.0875334"
       d="M 15.395826,3.9557574 A 11.052852,11.052852 0 0 0 3.2630273,13.811014 11.052852,11.052852 0 0 0 13.118288,25.943817 11.052852,11.052852 0 0 0 25.251086,16.088556 11.052852,11.052852 0 0 0 15.395826,3.9557574 Z M 15.16506,6.1836424 A 8.8130671,8.8130671 0 0 1 23.023201,15.857786 8.8130671,8.8130671 0 0 1 13.349054,23.715929 8.8130671,8.8130671 0 0 1 5.4909125,14.041784 8.8130671,8.8130671 0 0 1 15.16506,6.1836424 Z" />
    <path
       style="fill:none;fill-opacity:1;stroke-width:0.0875334"
       d="m 26.805125,21.878983 0.06255,6.957592 9.820276,-1.23458 -3.499481,-7.803101 z"
       id="path10" />
    <path
       style="fill:none;fill-opacity:1;stroke-width:0.0875334"
       d="m 47.500394,25.295358 -15.781478,-6.431908 -4.209114,3.773844 0.713966,6.339745 z"
       id="path16" />
    <path
       style="fill:none;fill-opacity:1;stroke-width:0.0875334"
       d="m 27.346175,22.326639 5.34794,-2.48105 2.891665,7.054831 -7.532203,0.884156 z"
       id="path17" />
    <path
       style="fill:none;fill-opacity:1;stroke-width:0.0875334"
       d="M 10.628885,20.203437 8.0525815,28.062531 15.805148,27.886512 15.465135,22.662444 Z"
       id="path18" />
    <text
       xml:space="preserve"
       transform="scale(0.26458333)"
       id="text18"
       style="font-size:96px;line-height:0;text-align:start;writing-mode:lr-tb;direction:ltr;white-space:pre;shape-inside:url(#rect18);fill:#0e0e0e;fill-opacity:0.983333" />
    <text
       xml:space="preserve"
       style="font-style:normal;font-variant:normal;font-weight:500;font-stretch:normal;font-size:16.9333px;line-height:0;font-family:Futura;-inkscape-font-specification:'Futura Medium';text-align:start;writing-mode:lr-tb;direction:ltr;text-anchor:start;fill:#be94f0;fill-opacity:0.983333;stroke-width:0.264583"
       x="42.386524"
       y="28.257677"
       id="text19"><tspan
         sodipodi:role="line"
         id="tspan19"
         style="font-style:normal;font-variant:normal;font-weight:500;font-stretch:normal;font-size:16.9333px;font-family:Futura;-inkscape-font-specification:'Futura Medium';fill:#be94f0;fill-opacity:0.983333;stroke-width:0.264583"
         x="42.386524"
         y="28.257677">TRANSFUNCTIONS</tspan></text>
  </g>
</svg>
