<?xml version="1.0" encoding="UTF-8" standalone="no"?>
<!-- Created with Inkscape (http://www.inkscape.org/) -->

<svg
   width="201mm"
   height="41mm"
   viewBox="0 0 201 41"
   version="1.1"
   id="svg1"
   inkscape:version="1.4.2 (ebf0e940, 2025-05-08)"
   sodipodi:docname="logo_2.svg"
   xmlns:inkscape="http://www.inkscape.org/namespaces/inkscape"
   xmlns:sodipodi="http://sodipodi.sourceforge.net/DTD/sodipodi-0.dtd"
   xmlns="http://www.w3.org/2000/svg"
   xmlns:svg="http://www.w3.org/2000/svg">
  <sodipodi:namedview
     id="namedview1"
     pagecolor="#ffffff"
     bordercolor="#000000"
     borderopacity="0.25"
     inkscape:showpageshadow="2"
     inkscape:pageopacity="0.0"
     inkscape:pagecheckerboard="0"
     inkscape:deskcolor="#d1d1d1"
     inkscape:document-units="mm"
     inkscape:zoom="0.89887065"
     inkscape:cx="567.37863"
     inkscape:cy="478.93432"
     inkscape:window-width="2800"
     inkscape:window-height="1186"
     inkscape:window-x="522"
     inkscape:window-y="540"
     inkscape:window-maximized="0"
     inkscape:current-layer="layer1" />
  <defs
     id="defs1">
    <rect
       x="238.07652"
       y="46.7253"
       width="442.77783"
       height="172.4386"
       id="rect18" />
    <linearGradient
       id="swatch10"
       inkscape:swatch="solid">
      <stop
         style="stop-color:#e1c757;stop-opacity:1;"
         offset="0"
         id="stop10" />
    </linearGradient>
  </defs>
  <g
     inkscape:label="Слой 1"
     inkscape:groupmode="layer"
     id="layer1">
    <path
       id="path3"
       style="fill:#57e1b5;fill-opacity:1;stroke-width:0.0875334"
       d="M 15.395826,3.9557574 A 11.052852,11.052852 0 0 0 3.2630273,13.811014 11.052852,11.052852 0 0 0 13.118288,25.943817 11.052852,11.052852 0 0 0 25.251086,16.088556 11.052852,11.052852 0 0 0 15.395826,3.9557574 Z M 15.16506,6.1836424 A 8.8130671,8.8130671 0 0 1 23.023201,15.857786 8.8130671,8.8130671 0 0 1 13.349054,23.715929 8.8130671,8.8130671 0 0 1 5.4909125,14.041784 8.8130671,8.8130671 0 0 1 15.16506,6.1836424 Z" />
    <path
       id="path4"
       style="fill:#5776e1;fill-opacity:1;stroke-width:0.0875334"
       d="M 22.75598,16.074873 A 11.052852,11.052852 0 0 0 10.623183,25.930128 11.052852,11.052852 0 0 0 20.478442,38.062931 11.052852,11.052852 0 0 0 32.611241,28.207669 11.052852,11.052852 0 0 0 22.75598,16.074873 Z m -0.230766,2.227881 a 8.8130671,8.8130671 0 0 1 7.858142,9.674146 8.8130671,8.8130671 0 0 1 -9.674149,7.858142 8.8130671,8.8130671 0 0 1 -7.858139,-9.674145 8.8130671,8.8130671 0 0 1 9.674146,-7.858143 z" />
    <path
       id="path5"
       style="fill:#e1c757;fill-opacity:1;stroke-width:0.0875334"
       d="M 29.484666,4.0444474 A 11.052852,11.052852 0 0 0 17.351868,13.899707 11.052852,11.052852 0 0 0 27.207127,26.03251 11.052852,11.052852 0 0 0 39.339929,16.177248 11.052852,11.052852 0 0 0 29.484666,4.0444474 Z m -0.230765,2.227886 a 8.8130671,8.8130671 0 0 1 7.858143,9.6741456 8.8130671,8.8130671 0 0 1 -9.674152,7.858143 8.8130671,8.8130671 0 0 1 -7.858139,-9.674153 8.8130671,8.8130671 0 0 1 9.674148,-7.8581356 z" />
    <path
       id="path6"
       style="fill:#e1c757;fill-opacity:0.7;stroke-width:0.0875334"
       d="M 29.484666,4.0444474 A 11.052852,11.052852 0 0 0 17.351868,13.899707 11.052852,11.052852 0 0 0 27.207127,26.03251 11.052852,11.052852 0 0 0 39.339929,16.177248 11.052852,11.052852 0 0 0 29.484666,4.0444474 Z m -0.230765,2.227886 a 8.8130671,8.8130671 0 0 1 7.858143,9.6741456 8.8130671,8.8130671 0 0 1 -9.674152,7.858143 8.8130671,8.8130671 0 0 1 -7.858139,-9.674153 8.8130671,8.8130671 0 0 1 9.674148,-7.8581356 z" />
    <path
       id="path7"
       style="fill:#5776e1;fill-opacity:0.7;stroke-width:0.0875334"
       d="M 22.75598,16.074873 A 11.052852,11.052852 0 0 0 10.623183,25.930128 11.052852,11.052852 0 0 0 20.478442,38.062931 11.052852,11.052852 0 0 0 32.611241,28.207669 11.052852,11.052852 0 0 0 22.75598,16.074873 Z m -0.230766,2.227881 a 8.8130671,8.8130671 0 0 1 7.858142,9.674146 8.8130671,8.8130671 0 0 1 -9.674149,7.858142 8.8130671,8.8130671 0 0 1 -7.858139,-9.674145 8.8130671,8.8130671 0 0 1 9.674146,-7.858143 z" />
    <path
       id="path9"
       style="fill:#57e1b5;fill-opacity:0.7;stroke-width:0.0875334"
       d="M 15.395826,3.9557574 A 11.052852,11.052852 0 0 0 3.2630273,13.811014 11.052852,11.052852 0 0 0 13.118288,25.943817 11.052852,11.052852 0 0 0 25.251086,16.088556 11.052852,11.052852 0 0 0 15.395826,3.9557574 Z M 15.16506,6.1836424 A 8.8130671,8.8130671 0 0 1 23.023201,15.857786 8.8130671,8.8130671 0 0 1 13.349054,23.715929 8.8130671,8.8130671 0 0 1 5.4909125,14.041784 8.8130671,8.8130671 0 0 1 15.16506,6.1836424 Z" />
    <path
       style="fill:none;fill-opacity:1;stroke-width:0.0875334"
       d="m 26.805125,21.878983 0.06255,6.957592 9.820276,-1.23458 -3.499481,-7.803101 z"
       id="path10" />
    <path
       style="fill:none;fill-opacity:1;stroke-width:0.0875334"
       d="m 47.500394,25.295358 -15.781478,-6.431908 -4.209114,3.773844 0.713966,6.339745 z"
       id="path16" />
    <path
       style="fill:none;fill-opacity:1;stroke-width:0.0875334"
       d="m 27.346175,22.326639 5.34794,-2.48105 2.891665,7.054831 -7.532203,0.884156 z"
       id="path17" />
    <path
       style="fill:none;fill-opacity:1;stroke-width:0.0875334"
       d="M 10.628885,20.203437 8.0525815,28.062531 15.805148,27.886512 15.465135,22.662444 Z"
       id="path18" />
    <text
       xml:space="preserve"
       transform="scale(0.26458333)"
       id="text18"
       style="font-size:96px;line-height:0;text-align:start;writing-mode:lr-tb;direction:ltr;white-space:pre;shape-inside:url(#rect18);display:inline;fill:#0e0e0e;fill-opacity:0.983333" />
    <path
       d="M 47.438402,17.302295 V 28.257677 H 45.511909 V 17.302295 h -2.935216 v -1.810739 h 7.788657 v 1.810739 z m 8.971011,5.514898 3.952206,5.440484 h -2.356441 l -3.646282,-5.22551 h -0.347265 v 5.22551 H 52.085138 V 15.491556 h 2.257222 q 2.530073,0 3.65455,0.950845 1.240232,1.058331 1.240232,2.794656 0,1.355987 -0.777212,2.331636 -0.777212,0.975649 -2.050517,1.2485 z m -2.397782,-1.463474 h 0.611848 q 2.736778,0 2.736778,-2.091858 0,-1.959566 -2.662364,-1.959566 h -0.686262 z m 15.767483,3.803378 h -5.465289 l -1.422133,3.10058 h -2.075321 l 6.316914,-13.568137 6.093673,13.568137 h -2.108394 z m -0.785481,-1.810738 -1.89342,-4.340812 -1.984372,4.340812 z m 5.829091,4.911318 V 14.623394 l 9.310007,9.739955 v -8.871793 h 1.926494 v 13.543333 l -9.310008,-9.71515 v 8.937938 z m 21.51389,-10.864432 -1.562693,0.92604 Q 94.335706,17.55861 93.938832,17.3271 q -0.413411,-0.264583 -1.0666,-0.264583 -0.802016,0 -1.331182,0.454752 -0.529166,0.446483 -0.529166,1.124476 0,0.934309 1.38906,1.504815 l 1.273305,0.520898 q 1.554424,0.628384 2.273759,1.537887 0.719334,0.901235 0.719334,2.215881 0,1.76113 -1.174086,2.910411 -1.182355,1.15755 -2.935216,1.15755 -1.661911,0 -2.745046,-0.983917 -1.0666,-0.983918 -1.331183,-2.769852 l 1.951299,-0.429947 q 0.132291,1.124477 0.463019,1.554424 0.595312,0.826822 1.736325,0.826822 0.901235,0 1.496547,-0.60358 0.595311,-0.603579 0.595311,-1.529619 0,-0.37207 -0.107487,-0.677994 -0.09922,-0.314192 -0.32246,-0.570506 -0.214974,-0.264583 -0.562239,-0.487825 -0.347264,-0.23151 -0.826821,-0.438215 l -1.231964,-0.512629 q -2.621023,-1.107941 -2.621023,-3.24114 0,-1.438669 1.099672,-2.40605 1.099673,-0.975649 2.736779,-0.975649 2.207613,0 3.447845,2.149735 z m 9.028886,-0.09095 h -4.4483 v 3.067507 h 4.29121 v 1.810739 h -4.29121 v 6.077136 H 98.990709 V 15.491556 h 6.374791 z m 4.15891,-1.810739 v 7.689438 q 0,1.645375 0.53744,2.40605 0.80201,1.099673 2.25722,1.099673 1.46347,0 2.26549,-1.099673 0.53743,-0.735871 0.53743,-2.40605 v -7.689438 h 1.9265 v 8.218604 q 0,2.017444 -1.25677,3.323822 -1.41387,1.455205 -3.47265,1.455205 -2.05879,0 -3.46438,-1.455205 -1.25677,-1.306378 -1.25677,-3.323822 v -8.218604 z m 10.58332,12.766121 V 14.623394 l 9.31,9.739955 v -8.871793 h 1.9265 v 13.543333 l -9.31001,-9.71515 v 8.937938 z m 23.84552,-12.079859 v 2.282027 q -1.67018,-1.397328 -3.45612,-1.397328 -1.96783,0 -3.31555,1.413864 -1.35599,1.405596 -1.35599,3.439577 0,2.009176 1.35599,3.389967 1.35599,1.380792 3.32382,1.380792 1.01699,0 1.72806,-0.330729 0.39687,-0.165364 0.81855,-0.446483 0.42995,-0.28112 0.90124,-0.677994 v 2.323368 q -1.65364,0.934308 -3.47265,0.934308 -2.73678,0 -4.67154,-1.909957 -1.9265,-1.926494 -1.9265,-4.646736 0,-2.439123 1.61231,-4.34908 1.98437,-2.339904 5.13456,-2.339904 1.71978,0 3.32382,0.934308 z m 5.95312,1.124477 v 10.955382 h -1.9265 V 17.302295 h -2.93521 v -1.810739 h 7.78865 v 1.810739 z m 6.57322,-1.810739 V 28.257677 H 154.5531 V 15.491556 Z m 2.43086,6.325183 q 0,-2.695437 1.9761,-4.630199 1.96784,-1.934762 4.72942,-1.934762 2.72851,0 4.67981,1.951298 1.95957,1.951299 1.95957,4.688077 0,2.753315 -1.96784,4.67154 -1.9761,1.926494 -4.77076,1.926494 -2.47219,0 -4.44003,-1.71152 -2.16627,-1.893421 -2.16627,-4.960928 z m 1.94303,0.02481 q 0,2.116662 1.42213,3.480917 1.41387,1.364256 3.26595,1.364256 2.00917,0 3.38996,-1.38906 1.3808,-1.405596 1.3808,-3.42304 0,-2.042249 -1.36426,-3.42304 -1.35599,-1.38906 -3.35689,-1.38906 -1.99264,0 -3.36517,1.38906 -1.37252,1.372523 -1.37252,3.389967 z m 13.82444,6.416133 V 14.623394 l 9.31001,9.739955 v -8.871793 h 1.92649 v 13.543333 l -9.31,-9.71515 v 8.937938 z m 21.5139,-10.864432 -1.56269,0.92604 q -0.43822,-0.760675 -0.83509,-0.992185 -0.41341,-0.264583 -1.0666,-0.264583 -0.80202,0 -1.33118,0.454752 -0.52917,0.446483 -0.52917,1.124476 0,0.934309 1.38906,1.504815 l 1.2733,0.520898 q 1.55443,0.628384 2.27376,1.537887 0.71934,0.901235 0.71934,2.215881 0,1.76113 -1.17409,2.910411 -1.18235,1.15755 -2.93521,1.15755 -1.66192,0 -2.74505,-0.983917 -1.0666,-0.983918 -1.33118,-2.769852 l 1.9513,-0.429947 q 0.13229,1.124477 0.46301,1.554424 0.59532,0.826822 1.73633,0.826822 0.90123,0 1.49655,-0.60358 0.59531,-0.603579 0.59531,-1.529619 0,-0.37207 -0.10749,-0.677994 -0.0992,-0.314192 -0.32246,-0.570506 -0.21497,-0.264583 -0.56224,-0.487825 -0.34726,-0.23151 -0.82682,-0.438215 l -1.23196,-0.512629 q -2.62103,-1.107941 -2.62103,-3.24114 0,-1.438669 1.09968,-2.40605 1.09967,-0.975649 2.73677,-0.975649 2.20762,0 3.44785,2.149735 z"
       id="text19"
       style="font-weight:500;font-size:16.9333px;line-height:0;font-family:Futura;-inkscape-font-specification:'Futura Medium';fill:#be94f0;fill-opacity:0.983333;stroke-width:0.264583"
       aria-label="TRANSFUNCTIONS" />
  </g>
</svg>
